# xmcd CD database file
#
# Track frame offsets:
#	150
#	11837
#	44877
#	71758
#	102843
#	128022
#	163568
#	188472
#	224944
#	265528
#	283333
#	311393
#
# Disc length: 4501 seconds
#
# Revision: 1
# Processed by: cddbd v1.5.2PL0 Copyright (c) Steve Scherf et al.
# Submitted via: CDex 1.51
#
DISCID=b411930c
DTITLE=Steen Rasmussen feat. Josefine Cronholm - Amanha - I Morron - Tomorrow
DYEAR=2009
DGENRE=Jazz
TTITLE0=Mas que nada
TTITLE1=Triste
TTITLE2=Amanha - I Morron - Tomorrow
TTITLE3=I Morron
TTITLE4=Na baixa do sapateiro
TTITLE5=Eu sei que vou te amar - Useless Landscape
TTITLE6=Chovendo na roseira
TTITLE7=Manha de carnaval
TTITLE8=Zanzibar
TTITLE9=Carla
TTITLE10=Pedaleando - Enamorado en mi bici
TTITLE11=Amazonas
EXTD=YEAR: 2009
EXTT0=
EXTT1=
EXTT2=
EXTT3=
EXTT4=
EXTT5=
EXTT6=
EXTT7=
EXTT8=
EXTT9=
EXTT10=
EXTT11=
PLAYORDER=
